# xmcd
#
# Track frame offsets:
#	150
#	10300
#	20421
#	29811
#	38958
#	48281
#	58433
#	69908
#	80282
#	90305
#	101546
#	111326
#	122168
#	132254
#	142571
#	152494
#	160918
#	172179
#	185233
#	195078
#	205214
#	214112
#	224932
#	234238
#	243898
#	252142
#
# Disc length: 3497
#
# Revision: 1
# Processed by: cddbd v1.5.1PL0 Copyright (c) Steve Scherf et al.
# Submitted via: EasyCDDAExtractor 4.6.0.1
# Normalized: r0:TDELIM( - )
#
DISCID=6c0da71a
DTITLE=Various Artist - Explosive DooWops  Vol 04
DYEAR=1900
DGENRE=blues
TTITLE0=Derbys - Night After Night
TTITLE1=Cadillacs (Gregory Howard and the) - When In Love
TTITLE2=Flairs - Steppin' Out
TTITLE3=Del-Aires - I'm Lonely
TTITLE4=G-Clefs - Darla My Darlin'
TTITLE5=Dave T (bb The Del Rays) - Scooter Town
TTITLE6=Richard Lanham and group - On Your Radio
TTITLE7=Ronnie Height and group - So Young, So Wise
TTITLE8=Fortuneers - Look A' There
TTITLE9=Team Mates - Never Believed In Love
TTITLE10=Accents - Rags To Riches
TTITLE11=Jumpin' Tones - Grandma's Hearing Aid
TTITLE12=Fantasys - Why, Oh Why
TTITLE13=Mellodeers - The Letter
TTITLE14=The Beatles - The Girl I Love
TTITLE15=Chex (Tev and the) - (Love Me) Now
TTITLE16=Chancellors - There Goes My Girl
TTITLE17=Cupids - Little Girl Of Mine
TTITLE18=Softwinds - Oh Baby
TTITLE19=Troys - Ding-A-Ling-A-Ling
TTITLE20=Lou Martino and group - Someone To Watch Over Me
TTITLE21=Diplomats (Dino and the) - Hush-A-Bye My Love
TTITLE22=Elites - Northern Star
TTITLE23=El Capris - Ivy League Clean
TTITLE24=Chips - Darling (I Need Your Love)
TTITLE25=Jets - Soul Dinner
EXTD=
EXTT0=
EXTT1=
EXTT2=
EXTT3=
EXTT4=
EXTT5=
EXTT6=
EXTT7=
EXTT8=
EXTT9=
EXTT10=
EXTT11=
EXTT12=
EXTT13=
EXTT14=
EXTT15=
EXTT16=
EXTT17=
EXTT18=
EXTT19=
EXTT20=
EXTT21=
EXTT22=
EXTT23=
EXTT24=
EXTT25=
PLAYORDER=
